<svg width="223" height="33" viewBox="0 0 223 33" fill="none" xmlns="http://www.w3.org/2000/svg">
<g clip-path="url(#clip0_10592_11961)">
<path d="M16.243 15.9989C16.243 13.1839 17.9561 10.7695 20.3932 9.74497V4.4277C20.3932 1.98125 18.4135 -0.00195312 15.9713 -0.00195312C13.5291 -0.00195312 11.5494 1.98125 11.5494 4.4277V11.5692H4.42202C1.97985 11.5692 0.00012207 13.5524 0.00012207 15.9989C0.00012207 18.4453 1.97985 20.4285 4.42202 20.4285H11.5511V27.5701C11.5511 30.0165 13.5308 31.9997 15.973 31.9997C18.4151 31.9997 20.3949 30.0165 20.3949 27.5701V22.2528C17.9561 21.2282 16.2447 18.8139 16.2447 15.9989H16.243Z" fill="#8C8C8C"/>
<path d="M27.1307 11.571H23.4312C20.989 11.571 19.0093 13.5543 19.0093 16.0007C19.0093 18.4471 20.989 20.4303 23.4312 20.4303H27.1307C29.5729 20.4303 31.5526 18.4471 31.5526 16.0007C31.5526 13.5543 29.5729 11.571 27.1307 11.571Z" fill="#8C8C8C"/>
</g>
<path d="M47.9396 7.77091L51.4596 7.18909V11.7855H56.8705V14.7236H51.4596V20.92C51.4596 22.1418 51.6535 23.0145 52.0414 23.5382C52.4293 24.0618 53.0887 24.3236 54.0196 24.3236C54.6596 24.3236 55.222 24.2558 55.7069 24.12C56.2111 23.9842 56.6087 23.8582 56.8996 23.7418L57.4814 26.5345C57.0741 26.7091 56.5408 26.8836 55.8814 27.0582C55.222 27.2521 54.4463 27.3491 53.5541 27.3491C52.4681 27.3491 51.5566 27.2036 50.8196 26.9127C50.102 26.6218 49.5299 26.2048 49.1032 25.6618C48.6766 25.0994 48.376 24.4303 48.2014 23.6545C48.0269 22.8594 47.9396 21.9576 47.9396 20.9491V7.77091ZM59.6914 27V5.00727L63.2114 4.42545V11.96C63.5993 11.8242 64.0454 11.7079 64.5496 11.6109C65.0732 11.5139 65.5872 11.4655 66.0914 11.4655C67.3132 11.4655 68.3217 11.64 69.1169 11.9891C69.9314 12.3188 70.5811 12.7939 71.066 13.4145C71.5508 14.0158 71.8902 14.743 72.0841 15.5964C72.2975 16.4497 72.4041 17.4 72.4041 18.4473V27H68.8841V19C68.8841 18.1855 68.826 17.497 68.7096 16.9345C68.6126 16.3527 68.4381 15.8873 68.186 15.5382C67.9532 15.1697 67.6332 14.9079 67.226 14.7527C66.8187 14.5782 66.3144 14.4909 65.7132 14.4909C65.2478 14.4909 64.7726 14.5394 64.2878 14.6364C63.8029 14.7333 63.4441 14.8206 63.2114 14.8982V27H59.6914ZM75.1978 19.4655C75.1978 18.1273 75.3917 16.9539 75.7796 15.9455C76.1869 14.937 76.7202 14.103 77.3796 13.4436C78.039 12.7648 78.7954 12.2606 79.6487 11.9309C80.502 11.5818 81.3748 11.4073 82.2669 11.4073C84.3614 11.4073 85.9905 12.057 87.1541 13.3564C88.3372 14.6558 88.9287 16.5952 88.9287 19.1745C88.9287 19.3685 88.919 19.5915 88.8996 19.8436C88.8996 20.0764 88.8899 20.2897 88.8705 20.4836H78.8341C78.9311 21.7055 79.3578 22.6558 80.1141 23.3345C80.8899 23.9939 82.0051 24.3236 83.4596 24.3236C84.3129 24.3236 85.0887 24.2461 85.7869 24.0909C86.5044 23.9358 87.0669 23.7709 87.4741 23.5964L87.9396 26.4764C87.7457 26.5733 87.4741 26.68 87.1251 26.7964C86.7954 26.8933 86.4075 26.9806 85.9614 27.0582C85.5348 27.1552 85.0693 27.2327 84.5651 27.2909C84.0608 27.3491 83.5469 27.3782 83.0232 27.3782C81.6851 27.3782 80.5214 27.1842 79.5323 26.7964C78.5432 26.3891 77.7287 25.8364 77.0887 25.1382C76.4487 24.4206 75.9735 23.5867 75.6632 22.6364C75.3529 21.6667 75.1978 20.6097 75.1978 19.4655ZM85.4087 17.8945C85.4087 17.4097 85.3408 16.9539 85.2051 16.5273C85.0693 16.0812 84.8657 15.703 84.5941 15.3927C84.342 15.063 84.022 14.8109 83.6341 14.6364C83.2657 14.4424 82.8196 14.3455 82.296 14.3455C81.7529 14.3455 81.2778 14.4521 80.8705 14.6655C80.4632 14.8594 80.1141 15.1212 79.8232 15.4509C79.5517 15.7806 79.3384 16.1588 79.1832 16.5855C79.0281 17.0121 78.9214 17.4485 78.8632 17.8945H85.4087ZM91.9044 7.77091L95.4244 7.18909V11.7855H100.835V14.7236H95.4244V20.92C95.4244 22.1418 95.6183 23.0145 96.0062 23.5382C96.3941 24.0618 97.0535 24.3236 97.9844 24.3236C98.6244 24.3236 99.1868 24.2558 99.6716 24.12C100.176 23.9842 100.573 23.8582 100.864 23.7418L101.446 26.5345C101.039 26.7091 100.506 26.8836 99.8462 27.0582C99.1868 27.2521 98.411 27.3491 97.5189 27.3491C96.4329 27.3491 95.5213 27.2036 94.7844 26.9127C94.0668 26.6218 93.4947 26.2048 93.068 25.6618C92.6413 25.0994 92.3407 24.4303 92.1662 23.6545C91.9916 22.8594 91.9044 21.9576 91.9044 20.9491V7.77091ZM112.325 14.9564C112.034 14.8594 111.627 14.7624 111.103 14.6655C110.599 14.5491 110.008 14.4909 109.329 14.4909C108.941 14.4909 108.524 14.5297 108.078 14.6073C107.651 14.6848 107.351 14.7527 107.176 14.8109V27H103.656V12.5127C104.335 12.2606 105.179 12.0279 106.187 11.8145C107.215 11.5818 108.35 11.4655 109.591 11.4655C109.823 11.4655 110.095 11.4848 110.405 11.5236C110.716 11.543 111.026 11.5818 111.336 11.64C111.646 11.6788 111.947 11.737 112.238 11.8145C112.529 11.8727 112.762 11.9309 112.936 11.9891L112.325 14.9564ZM118.356 27H114.836V11.7855H118.356V27ZM118.735 7.33454C118.735 7.99394 118.521 8.51757 118.095 8.90545C117.668 9.29333 117.164 9.48727 116.582 9.48727C115.981 9.48727 115.467 9.29333 115.04 8.90545C114.613 8.51757 114.4 7.99394 114.4 7.33454C114.4 6.65576 114.613 6.12242 115.04 5.73454C115.467 5.34667 115.981 5.15273 116.582 5.15273C117.164 5.15273 117.668 5.34667 118.095 5.73454C118.521 6.12242 118.735 6.65576 118.735 7.33454ZM121.422 19.4073C121.422 18.2824 121.596 17.2352 121.945 16.2655C122.294 15.2764 122.789 14.423 123.429 13.7055C124.088 12.9879 124.883 12.4255 125.814 12.0182C126.745 11.6109 127.793 11.4073 128.956 11.4073C130.391 11.4073 131.749 11.6691 133.029 12.1927L132.273 15.0727C131.865 14.8982 131.4 14.7527 130.876 14.6364C130.372 14.52 129.829 14.4618 129.247 14.4618C127.87 14.4618 126.823 14.8982 126.105 15.7709C125.388 16.6242 125.029 17.8364 125.029 19.4073C125.029 20.92 125.368 22.1224 126.047 23.0145C126.726 23.8873 127.87 24.3236 129.48 24.3236C130.081 24.3236 130.673 24.2655 131.254 24.1491C131.836 24.0327 132.34 23.8873 132.767 23.7127L133.262 26.6218C132.874 26.8158 132.282 26.9903 131.487 27.1455C130.711 27.3006 129.906 27.3782 129.073 27.3782C127.773 27.3782 126.639 27.1842 125.669 26.7964C124.719 26.3891 123.923 25.8364 123.283 25.1382C122.663 24.4206 122.197 23.577 121.887 22.6073C121.577 21.6182 121.422 20.5515 121.422 19.4073ZM135.405 27V5.00727L138.925 4.42545V11.96C139.313 11.8242 139.759 11.7079 140.263 11.6109C140.787 11.5139 141.301 11.4655 141.805 11.4655C143.027 11.4655 144.035 11.64 144.831 11.9891C145.645 12.3188 146.295 12.7939 146.78 13.4145C147.264 14.0158 147.604 14.743 147.798 15.5964C148.011 16.4497 148.118 17.4 148.118 18.4473V27H144.598V19C144.598 18.1855 144.54 17.497 144.423 16.9345C144.326 16.3527 144.152 15.8873 143.9 15.5382C143.667 15.1697 143.347 14.9079 142.94 14.7527C142.532 14.5782 142.028 14.4909 141.427 14.4909C140.961 14.4909 140.486 14.5394 140.001 14.6364C139.517 14.7333 139.158 14.8206 138.925 14.8982V27H135.405ZM165.515 19.3782C165.515 20.5806 165.341 21.6764 164.991 22.6655C164.642 23.6545 164.148 24.4982 163.508 25.1964C162.868 25.8945 162.092 26.4376 161.181 26.8255C160.288 27.2133 159.299 27.4073 158.213 27.4073C157.127 27.4073 156.138 27.2133 155.246 26.8255C154.354 26.4376 153.588 25.8945 152.948 25.1964C152.308 24.4982 151.804 23.6545 151.435 22.6655C151.086 21.6764 150.911 20.5806 150.911 19.3782C150.911 18.1758 151.086 17.0897 151.435 16.12C151.804 15.1309 152.308 14.2873 152.948 13.5891C153.607 12.8909 154.383 12.3576 155.275 11.9891C156.167 11.6012 157.147 11.4073 158.213 11.4073C159.28 11.4073 160.259 11.6012 161.151 11.9891C162.063 12.3576 162.839 12.8909 163.479 13.5891C164.119 14.2873 164.613 15.1309 164.962 16.12C165.331 17.0897 165.515 18.1758 165.515 19.3782ZM161.908 19.3782C161.908 17.8655 161.578 16.6727 160.919 15.8C160.279 14.9079 159.377 14.4618 158.213 14.4618C157.05 14.4618 156.138 14.9079 155.479 15.8C154.839 16.6727 154.519 17.8655 154.519 19.3782C154.519 20.9103 154.839 22.1224 155.479 23.0145C156.138 23.9067 157.05 24.3527 158.213 24.3527C159.377 24.3527 160.279 23.9067 160.919 23.0145C161.578 22.1224 161.908 20.9103 161.908 19.3782ZM173.854 27.2909C172.807 27.2715 171.934 27.1552 171.236 26.9418C170.557 26.7285 170.014 26.4279 169.607 26.04C169.2 25.6327 168.909 25.1382 168.734 24.5564C168.579 23.9552 168.501 23.2764 168.501 22.52V5.00727L172.021 4.42545V21.8509C172.021 22.2776 172.051 22.6364 172.109 22.9273C172.186 23.2182 172.312 23.4703 172.487 23.6836C172.661 23.8776 172.894 24.0327 173.185 24.1491C173.495 24.2461 173.883 24.3236 174.349 24.3818L173.854 27.2909ZM190.374 19.3782C190.374 20.5806 190.2 21.6764 189.851 22.6655C189.501 23.6545 189.007 24.4982 188.367 25.1964C187.727 25.8945 186.951 26.4376 186.04 26.8255C185.147 27.2133 184.158 27.4073 183.072 27.4073C181.986 27.4073 180.997 27.2133 180.105 26.8255C179.213 26.4376 178.447 25.8945 177.807 25.1964C177.167 24.4982 176.663 23.6545 176.294 22.6655C175.945 21.6764 175.771 20.5806 175.771 19.3782C175.771 18.1758 175.945 17.0897 176.294 16.12C176.663 15.1309 177.167 14.2873 177.807 13.5891C178.466 12.8909 179.242 12.3576 180.134 11.9891C181.026 11.6012 182.006 11.4073 183.072 11.4073C184.139 11.4073 185.118 11.6012 186.011 11.9891C186.922 12.3576 187.698 12.8909 188.338 13.5891C188.978 14.2873 189.472 15.1309 189.821 16.12C190.19 17.0897 190.374 18.1758 190.374 19.3782ZM186.767 19.3782C186.767 17.8655 186.437 16.6727 185.778 15.8C185.138 14.9079 184.236 14.4618 183.072 14.4618C181.909 14.4618 180.997 14.9079 180.338 15.8C179.698 16.6727 179.378 17.8655 179.378 19.3782C179.378 20.9103 179.698 22.1224 180.338 23.0145C180.997 23.9067 181.909 24.3527 183.072 24.3527C184.236 24.3527 185.138 23.9067 185.778 23.0145C186.437 22.1224 186.767 20.9103 186.767 19.3782ZM196.182 19C196.182 20.4933 196.502 21.5891 197.142 22.2873C197.802 22.9661 198.645 23.3055 199.673 23.3055C200.236 23.3055 200.759 23.2279 201.244 23.0727C201.748 22.9176 202.156 22.7333 202.466 22.52V14.6364C202.214 14.5782 201.904 14.5297 201.535 14.4909C201.167 14.4327 200.701 14.4036 200.139 14.4036C198.859 14.4036 197.879 14.8303 197.201 15.6836C196.522 16.5176 196.182 17.623 196.182 19ZM205.986 25.4582C205.986 27.8824 205.365 29.657 204.124 30.7818C202.902 31.9067 201.021 32.4691 198.481 32.4691C197.55 32.4691 196.638 32.3915 195.746 32.2364C194.873 32.0812 194.078 31.8776 193.361 31.6255L194.001 28.6291C194.602 28.8812 195.281 29.0848 196.037 29.24C196.813 29.3952 197.647 29.4727 198.539 29.4727C199.954 29.4727 200.963 29.1818 201.564 28.6C202.165 28.0182 202.466 27.1552 202.466 26.0109V25.4291C202.117 25.6036 201.651 25.7782 201.07 25.9527C200.507 26.1273 199.857 26.2145 199.121 26.2145C198.151 26.2145 197.259 26.0594 196.444 25.7491C195.649 25.4388 194.961 24.983 194.379 24.3818C193.816 23.7806 193.37 23.0339 193.041 22.1418C192.73 21.2303 192.575 20.183 192.575 19C192.575 17.8945 192.74 16.8764 193.07 15.9455C193.419 15.0145 193.913 14.2194 194.553 13.56C195.213 12.9006 196.008 12.3867 196.939 12.0182C197.87 11.6497 198.927 11.4655 200.11 11.4655C201.254 11.4655 202.34 11.5527 203.368 11.7273C204.396 11.9018 205.268 12.0861 205.986 12.28V25.4582ZM222.304 11.7855C220.733 17.5648 218.91 22.8012 216.835 27.4945C216.447 28.3673 216.05 29.1139 215.642 29.7345C215.235 30.3552 214.779 30.8691 214.275 31.2764C213.771 31.6836 213.208 31.9745 212.588 32.1491C211.967 32.343 211.25 32.44 210.435 32.44C209.892 32.44 209.349 32.3818 208.806 32.2655C208.282 32.1491 207.885 32.023 207.613 31.8873L208.253 29.0655C208.951 29.337 209.64 29.4727 210.319 29.4727C211.23 29.4727 211.938 29.2497 212.442 28.8036C212.966 28.377 213.422 27.7079 213.81 26.7964C212.704 24.663 211.637 22.3358 210.61 19.8145C209.601 17.2933 208.699 14.617 207.904 11.7855H211.657C211.851 12.6 212.084 13.4824 212.355 14.4327C212.646 15.383 212.956 16.3527 213.286 17.3418C213.616 18.3115 213.965 19.2812 214.333 20.2509C214.702 21.2206 215.07 22.1224 215.439 22.9564C216.059 21.2303 216.641 19.3976 217.184 17.4582C217.727 15.4994 218.222 13.6085 218.668 11.7855H222.304Z" fill="#8C8C8C"/>
<defs>
<clipPath id="clip0_10592_11961">
<rect width="31.5524" height="32" fill="white"/>
</clipPath>
</defs>
</svg>
